<svg id="0d6619de-4400-43f0-b738-7fa44f357edb" data-name="Calque 1" xmlns="http://www.w3.org/2000/svg" width="448.31" height="322.5" viewBox="0 0 448.31 322.5"><title>chercheappart</title><polygon points="166.62 199.47 97.33 244.49 97.33 144.79 166.62 99.77 166.62 199.47" style="fill:#065a60"/><polygon points="194.67 144.71 263.96 99.72 166.62 99.72 97.33 144.72 194.67 144.71" style="fill:#fbb017"/><polygon points="97.33 144.71 166.62 99.72 69.29 99.72 0 144.72 97.33 144.71" style="fill:#ed1b36"/><polygon points="166.62 99.7 97.33 144.72 97.33 45.02 166.62 0 166.62 99.7" style="fill:#1285c6"/><path d="M132.65,305.67a.66.66,0,0,1,.48.2l1.14,1.23a18.88,18.88,0,0,1-2.74,2.41,17.05,17.05,0,0,1-3.24,1.83,19,19,0,0,1-3.85,1.17,23.88,23.88,0,0,1-4.61.41,19.64,19.64,0,0,1-7.69-1.47,17.07,17.07,0,0,1-6-4.17,19.12,19.12,0,0,1-3.89-6.52,24.6,24.6,0,0,1-1.4-8.5,23.45,23.45,0,0,1,1.44-8.39,19.1,19.1,0,0,1,4.05-6.52,18.05,18.05,0,0,1,6.25-4.22,20.88,20.88,0,0,1,8-1.5,22.8,22.8,0,0,1,4,.33,18.43,18.43,0,0,1,3.41.94,16,16,0,0,1,3,1.53,23,23,0,0,1,2.74,2.11l-.88,1.28a.8.8,0,0,1-.71.34,1.21,1.21,0,0,1-.66-.3l-1-.74q-.61-.44-1.48-1a12,12,0,0,0-2.07-1,17.57,17.57,0,0,0-2.77-.74,19.18,19.18,0,0,0-3.57-.3,17.59,17.59,0,0,0-6.76,1.27,15.17,15.17,0,0,0-5.31,3.62,16.55,16.55,0,0,0-3.47,5.71,21.52,21.52,0,0,0-1.24,7.52,22.22,22.22,0,0,0,1.23,7.64,16.52,16.52,0,0,0,3.39,5.69,14.72,14.72,0,0,0,5.12,3.57,16.36,16.36,0,0,0,6.4,1.24,23.47,23.47,0,0,0,3.87-.29,15.15,15.15,0,0,0,3.12-.86,14,14,0,0,0,2.65-1.4,20.06,20.06,0,0,0,2.42-1.94,2,2,0,0,1,.27-.19A.62.62,0,0,1,132.65,305.67Z" style="fill:#065a60"/><path d="M142.09,312.46V271h2.71v18a16,16,0,0,1,4.49-3.87,11.21,11.21,0,0,1,5.66-1.44,10.66,10.66,0,0,1,4.12.74,7.58,7.58,0,0,1,3,2.14,9.46,9.46,0,0,1,1.77,3.37,15.24,15.24,0,0,1,.6,4.45v18.14h-2.71V294.31a9.72,9.72,0,0,0-1.83-6.26q-1.83-2.27-5.59-2.27a9.9,9.9,0,0,0-5.19,1.44,15.11,15.11,0,0,0-4.28,4v21.28Z" style="fill:#065a60"/><path d="M183.65,283.62a11.7,11.7,0,0,1,4.44.83,10,10,0,0,1,3.54,2.41,11.1,11.1,0,0,1,2.34,3.89,15.44,15.44,0,0,1,.84,5.31,1.41,1.41,0,0,1-.19.86.71.71,0,0,1-.58.23H173.55v.54a19.22,19.22,0,0,0,.74,5.62,11.5,11.5,0,0,0,2.11,4.07,8.69,8.69,0,0,0,3.31,2.47,10.94,10.94,0,0,0,4.34.83,13,13,0,0,0,3.71-.47,13.87,13.87,0,0,0,2.64-1.06,14.33,14.33,0,0,0,1.7-1.06,1.93,1.93,0,0,1,.91-.47.66.66,0,0,1,.57.29l.74.91a7.76,7.76,0,0,1-1.81,1.6,12.94,12.94,0,0,1-2.51,1.27,18.3,18.3,0,0,1-3,.84,16.33,16.33,0,0,1-3.18.31,13.5,13.5,0,0,1-5.31-1,11.3,11.3,0,0,1-4.11-3,13.53,13.53,0,0,1-2.65-4.75,20.3,20.3,0,0,1-.94-6.43,17.55,17.55,0,0,1,.87-5.63,12.91,12.91,0,0,1,2.51-4.45,11.45,11.45,0,0,1,4-2.92A13.22,13.22,0,0,1,183.65,283.62Zm0,2a10.65,10.65,0,0,0-3.93.68,8.61,8.61,0,0,0-3,2,10,10,0,0,0-2.05,3.08,14,14,0,0,0-1,4h18.68a12.47,12.47,0,0,0-.63-4.09,8.76,8.76,0,0,0-1.77-3.07,7.66,7.66,0,0,0-2.73-1.92A9,9,0,0,0,183.69,285.64Z" style="fill:#065a60"/><path d="M202.11,312.46V284.07h1.43a1,1,0,0,1,.7.2,1,1,0,0,1,.24.68l.23,6a13.5,13.5,0,0,1,3.65-5.41,8.34,8.34,0,0,1,5.62-2,9.75,9.75,0,0,1,2.37.27,9.05,9.05,0,0,1,2.05.78l-.37,1.88a.52.52,0,0,1-.57.46,1.54,1.54,0,0,1-.48-.11l-.79-.26a9.43,9.43,0,0,0-1.16-.26,9.61,9.61,0,0,0-1.57-.11,7.31,7.31,0,0,0-5.29,2,14.27,14.27,0,0,0-3.35,5.76v18.46Z" style="fill:#065a60"/><path d="M243.44,287.87a3,3,0,0,1-.27.24.57.57,0,0,1-.36.1,1.48,1.48,0,0,1-.78-.38,10.68,10.68,0,0,0-1.33-.84,11.18,11.18,0,0,0-2.07-.84,11.55,11.55,0,0,0-7.36.48,8.64,8.64,0,0,0-3.2,2.5,11.44,11.44,0,0,0-2,3.94,20.25,20.25,0,0,0,0,10.5,11.29,11.29,0,0,0,2,3.89,8.44,8.44,0,0,0,3.11,2.41,9.7,9.7,0,0,0,4,.83,10.47,10.47,0,0,0,3.44-.49,11.2,11.2,0,0,0,2.28-1.05,10.35,10.35,0,0,0,1.43-1.06,1.48,1.48,0,0,1,.84-.49.66.66,0,0,1,.57.29l.74.91a8.31,8.31,0,0,1-1.65,1.6,11.2,11.2,0,0,1-2.25,1.28,13.8,13.8,0,0,1-2.72.84,15.36,15.36,0,0,1-3.07.3,12.16,12.16,0,0,1-4.95-1,10.72,10.72,0,0,1-3.85-2.85,13.34,13.34,0,0,1-2.51-4.58,21.29,21.29,0,0,1,0-12.09,13.35,13.35,0,0,1,2.5-4.62,11.19,11.19,0,0,1,4-3,13.21,13.21,0,0,1,5.46-1.07,12.88,12.88,0,0,1,4.92.88,12.08,12.08,0,0,1,3.75,2.4Z" style="fill:#065a60"/><path d="M250.71,312.46V271h2.71v18a16,16,0,0,1,4.49-3.87,11.21,11.21,0,0,1,5.66-1.44,10.67,10.67,0,0,1,4.12.74,7.57,7.57,0,0,1,3,2.14,9.48,9.48,0,0,1,1.77,3.37,15.27,15.27,0,0,1,.6,4.45v18.14h-2.71V294.31a9.72,9.72,0,0,0-1.83-6.26q-1.83-2.27-5.59-2.27a9.9,9.9,0,0,0-5.19,1.44,15.09,15.09,0,0,0-4.28,4v21.28Z" style="fill:#065a60"/><path d="M281.95,270.32a8.88,8.88,0,0,1,.91,2.15,8.31,8.31,0,0,1,.29,2.15,9.05,9.05,0,0,1-1.08,4.28,14.77,14.77,0,0,1-2.82,3.74l-.8-.51a.51.51,0,0,1-.2-.4.55.55,0,0,1,.17-.4,17.82,17.82,0,0,0,1.8-2.87,6.65,6.65,0,0,0,.71-3,6.81,6.81,0,0,0-1-3.39.85.85,0,0,1-.14-.46.59.59,0,0,1,.43-.57Z" style="fill:#065a60"/><path d="M317.89,312.46h-2.25a1,1,0,0,1-.66-.21,1.41,1.41,0,0,1-.4-.56L309.82,300H290l-4.73,11.72a1.22,1.22,0,0,1-.4.54,1.06,1.06,0,0,1-.68.23h-2.23l16.52-40.36h2.91Zm-27-14.66H309l-8.24-20.4q-.2-.48-.4-1.1t-.4-1.3q-.2.68-.4,1.3t-.4,1.13Z" style="fill:#ed1b36"/><path d="M322.91,322.5V284.07h1.48a1,1,0,0,1,.6.16.69.69,0,0,1,.26.56l.26,4.39a15.06,15.06,0,0,1,4.41-4.08,10.81,10.81,0,0,1,5.66-1.51,9.88,9.88,0,0,1,8.16,3.62q2.91,3.62,2.91,10.87a20,20,0,0,1-.81,5.8,13.93,13.93,0,0,1-2.38,4.68,11.22,11.22,0,0,1-3.87,3.12,11.74,11.74,0,0,1-5.29,1.14,11.12,11.12,0,0,1-5-1.06,10.2,10.2,0,0,1-3.65-3.14V322.5Zm11.9-36.71a9.3,9.3,0,0,0-5.12,1.47,14.13,14.13,0,0,0-4.07,4.09v14.89a9.72,9.72,0,0,0,3.61,3.45,10.88,10.88,0,0,0,8.91.08,8.65,8.65,0,0,0,3.15-2.58,11.64,11.64,0,0,0,1.91-4,19.21,19.21,0,0,0,.64-5.12q0-6.33-2.32-9.31A8,8,0,0,0,334.81,285.78Z" style="fill:#ed1b36"/><path d="M353.43,322.5V284.07h1.48a1,1,0,0,1,.6.16.69.69,0,0,1,.26.56l.26,4.39a15.06,15.06,0,0,1,4.41-4.08,10.81,10.81,0,0,1,5.66-1.51,9.88,9.88,0,0,1,8.16,3.62q2.91,3.62,2.91,10.87a20,20,0,0,1-.81,5.8,13.93,13.93,0,0,1-2.38,4.68,11.22,11.22,0,0,1-3.87,3.12,11.74,11.74,0,0,1-5.29,1.14,11.12,11.12,0,0,1-5-1.06,10.2,10.2,0,0,1-3.65-3.14V322.5Zm11.9-36.71a9.3,9.3,0,0,0-5.12,1.47,14.13,14.13,0,0,0-4.07,4.09v14.89a9.72,9.72,0,0,0,3.61,3.45,10.88,10.88,0,0,0,8.91.08,8.65,8.65,0,0,0,3.15-2.58,11.64,11.64,0,0,0,1.91-4,19.21,19.21,0,0,0,.64-5.12q0-6.33-2.32-9.31A8,8,0,0,0,365.33,285.78Z" style="fill:#ed1b36"/><path d="M402.07,312.46a1,1,0,0,1-1.06-.8l-.4-3.62a29.8,29.8,0,0,1-2.33,2.05,13.89,13.89,0,0,1-2.41,1.54,11.85,11.85,0,0,1-2.71,1,14.53,14.53,0,0,1-3.2.33,9.41,9.41,0,0,1-2.82-.43,7,7,0,0,1-2.42-1.31,6.43,6.43,0,0,1-1.7-2.27,7.85,7.85,0,0,1-.64-3.32,5.9,5.9,0,0,1,1-3.34,8.44,8.44,0,0,1,3.21-2.68,21.2,21.2,0,0,1,5.62-1.83,48.92,48.92,0,0,1,8.26-.8v-3a9.51,9.51,0,0,0-1.7-6.06,6.06,6.06,0,0,0-5-2.13,9.49,9.49,0,0,0-3.49.57,12.31,12.31,0,0,0-2.44,1.25,15.31,15.31,0,0,0-1.63,1.25,1.76,1.76,0,0,1-1.06.57.92.92,0,0,1-.86-.51l-.49-.83a16.48,16.48,0,0,1,4.68-3.37,13,13,0,0,1,5.56-1.14,10.14,10.14,0,0,1,4,.73,7.39,7.39,0,0,1,2.84,2.08,9.11,9.11,0,0,1,1.7,3.28,15.07,15.07,0,0,1,.57,4.29v18.48Zm-11.41-1.51a12.17,12.17,0,0,0,3-.36,11.23,11.23,0,0,0,2.57-1,12.56,12.56,0,0,0,2.21-1.53q1-.88,2-1.91v-7.39a50.71,50.71,0,0,0-7,.61,20.06,20.06,0,0,0-4.82,1.36,7.06,7.06,0,0,0-2.8,2,4.34,4.34,0,0,0-.9,2.7,6,6,0,0,0,.47,2.47,4.74,4.74,0,0,0,3,2.7A7.28,7.28,0,0,0,390.66,310.94Z" style="fill:#ed1b36"/><path d="M411.71,312.46V284.07h1.43a1,1,0,0,1,.7.2,1,1,0,0,1,.24.68l.23,6a13.5,13.5,0,0,1,3.65-5.41,8.34,8.34,0,0,1,5.62-2,9.75,9.75,0,0,1,2.37.27,9.05,9.05,0,0,1,2.05.78l-.37,1.88a.52.52,0,0,1-.57.46,1.54,1.54,0,0,1-.48-.11l-.79-.26a9.43,9.43,0,0,0-1.16-.26,9.61,9.61,0,0,0-1.57-.11,7.31,7.31,0,0,0-5.29,2,14.27,14.27,0,0,0-3.35,5.76v18.46Z" style="fill:#ed1b36"/><path d="M442.09,312.91a6.06,6.06,0,0,1-4.48-1.6,6.72,6.72,0,0,1-1.6-4.94V287h-4.08a.76.76,0,0,1-.51-.17.6.6,0,0,1-.2-.49v-1.05l4.85-.34.68-10.16a.79.79,0,0,1,.21-.46.64.64,0,0,1,.49-.2h1.27V285h8.93v2h-8.93v19.25a6,6,0,0,0,.3,2,3.73,3.73,0,0,0,.83,1.38,3.24,3.24,0,0,0,1.24.8,4.51,4.51,0,0,0,1.54.26,4.71,4.71,0,0,0,1.77-.3,7.31,7.31,0,0,0,1.28-.66,8.36,8.36,0,0,0,.88-.66,1,1,0,0,1,.54-.3.62.62,0,0,1,.46.29l.74,1.2a7.92,7.92,0,0,1-2.75,1.93A8.59,8.59,0,0,1,442.09,312.91Z" style="fill:#ed1b36"/></svg>