<?xml version="1.0" encoding="utf-8"?>
<!-- Generator: Adobe Illustrator 21.1.0, SVG Export Plug-In . SVG Version: 6.00 Build 0)  -->
<svg version="1.1" xmlns="http://www.w3.org/2000/svg" xmlns:xlink="http://www.w3.org/1999/xlink" x="0px" y="0px"
	 viewBox="0 0 272.7 50.4" style="enable-background:new 0 0 272.7 50.4;" xml:space="preserve">
<style type="text/css">
	.st0{display:none;}
	.st1{fill:#4B74B1;}
	.st2{fill:#FDFDFE;}
	.st3{fill:#FDFEFE;}
	.st4{fill:#FCFCFD;}
	.st5{fill:#FAFBFD;}
	.st6{fill:#FBFBFD;}
	.st7{fill:#F0F3F8;}
	.st8{fill:#527AB5;}
	.st9{fill:#4C75B2;}
	.st10{fill:#557CB6;}
	.st11{fill:#4E76B3;}
	.st12{fill:#4C74B2;}
	.st13{fill:none;stroke:#FDFDFE;stroke-miterlimit:10;}
</style>
<g id="Calque_1" class="st0">
</g>
<g id="Calque_2">
	<path class="st1" d="M256.4,26c0.3,0.5,14.1,20.2,15.2,21c1.4,0.8,1.6,1.8,0.2,2.8c-5,1.2-10.1,0.3-15.1,0.3
		c-29.2,0.3-58.5,0.3-87.7,0c-7.9-0.1-15.8,0.4-23.8-0.2c-4.6-0.4-9.5,0.5-14.1,0.2c-7.3-0.5-14.6-0.3-21.9-0.2
		C99.4,50,89.6,50,79.8,50c-8.1,0-16.3,0.5-24.5-0.2c-4.4-0.4-9.2,0.1-13.8,0.3c-12,0-23.9,0-35.9,0c-1.6,0-3.2,0.2-4.8-0.4
		c-1.1-0.7-1.3-1.4,0.1-2c0.2-0.3,0.4-0.6,0.7-0.8C2,46.3,17.6,26.4,18,25.8C17.3,22.6,2.6,4.1,1.7,2.3C1.4,1.9,1.1,1.5,0.9,1.1l0,0
		c0.3-1.6,1.5-0.9,2.4-0.9c36.2,0,72.4,0,108.6,0c38,0,75.9-0.1,113.9-0.1c14.9,0,29.7,0,44.6,0c0.9,0,1.8-0.2,2.1,1
		c0,0.6-0.2,1.1-0.9,1.3"/>
	<path class="st2" d="M89.5,31.1c-4,4.4-7.2,4.9-11.5,1.4c-1.3-1.1-1.5-0.4-2.2,0.4c-1.2,1.5-2.7,2.3-4.6,1.6c-2-0.7-2.9-2.3-3-4.3
		c-0.1-2.7,0-5.5-0.1-8.2c-0.1-1.6-0.1-3.5-2.4-3.6c-2.3-0.1-3.1,1.7-3.2,3.5c-0.3,3.2-0.1,6.5-0.2,9.7c0,1.1,0.5,2.6-1.5,2.9
		c-2.1,0.3-2.5-1-2.6-2.8c-1.5,0.9-2.8,1.8-4.3,2.5c-5.7,2.5-11.6,0.2-13.6-5.4c-2.1-5.9-1.8-11.8,0.7-17.5c1.4-3.4,4.3-5.2,7.9-5.4
		c2.4-0.1,4.5,0.6,6,2.9c0.9,1.4,0.6,2.6,0.7,3.9c0.1,1.3-0.9,1.2-1.8,1.2c-1.4,0-1.2-0.7-0.9-1.7c0.7-2,0.4-3.9-1.7-4.7
		c-2.2-0.9-3.9,0.4-5.2,2.1c-3.1,4-3.5,15.2-0.7,19.5c2.1,3.2,5.3,3.6,8.6,2.8c3.2-0.8,4.5-3.2,4.4-6.5c-0.1-4.7,0-9.5,0-14.2
		c0-1.6,0-3,2.2-3.1c2.4-0.1,1.6,1.7,1.7,2.9c0.1,2,0,4,0,6.1c6.5-3.3,9.8-1.2,9.7,6c0,2.1-0.3,4.2-0.2,6.3c0,1,0.2,2.5,1.7,2.4
		c1.3,0,1.9-1.2,2.1-2.3c0.2-1.3,0.1-2.7,0.1-4.1c0.1-3.1,0.8-5.9,3-8.2c2.2-2.3,6.2-2.4,8.1-0.4c2,2.2,1.2,6.3-1.6,8.2
		c-0.7,0.5-1.6,0.7-2.3,1.2c-1.1,0.7-3.8-0.2-2.8,2.7c0.7,2.2,2.2,3.2,4.5,3c1.4-0.1,2.6-0.9,3.8-1.5C89.5,30.1,89.6,30.5,89.5,31.1
		z"/>
	<path class="st3" d="M205.7,31.8c-2,2.3-4.1,3.7-7,2.4c-2.8-1.3-4-3.6-4.2-6.6c-0.2-3.3,0-6.5,1.8-9.4c1.7-2.6,4-3.6,7.1-2.7
		c0.3,0.1,0.7,0.6,0.9,0.5c6.8-2.9,4.2,2.6,4.5,5.2c0.3,2.6,0.1,5.2,0.1,7.9c0,1,0.3,2.1,1.4,2.4c1.4,0.4,2-0.8,2.4-1.9
		c1.3-3.6,0.3-7.4,0.6-11.1c0.1-1-0.6-2.6,0.6-3c1-0.4,2.6-1.1,3.3,1.1c0.4,1.2,1.1,0.1,1.6-0.3c1-0.8,2.1-1.3,3.4-1.1
		c1.4,0.3,1.8,1.2,1.7,2.5c-0.2,1.3-1,1.6-2.2,1.2c-3.8-1.3-4.7,0.8-4.6,4c0,3,0,6,0,9c0,0.8,0.2,1.7-0.8,2.2
		c-1.8,0.9-3.4-1.5-5.6,0C208.5,35.9,206.9,33.7,205.7,31.8z"/>
	<path class="st2" d="M147.4,19.3c-1.3,6.3-2.6,12.7-1,19.2c-3.9-0.5-5.3-2.5-4.9-6.9c0.3-4.2,1.4-8.3,2.9-12.9
		c-2.3,0.9-5.7-0.9-4.6,3.8c0.2,0.9-1,1.3-1.9,0.9c-1.6-0.6-2.2-1.7-1.6-3.2c0.9-1.9,2.6-2.8,4.6-2.7c3.3,0.1,5-1.5,6.3-4.4
		c1.5-3.2,3.7-6,7.4-7c2.5-0.7,4.4-0.4,4.3,3c-0.1,7.5-0.1,15,0,22.5c0,1.6-0.1,3-2.3,2.9c-2.2-0.1-1.7-1.6-1.8-2.9
		c-0.3-3.7,0.7-7.4-0.6-11.1c-0.3-0.6-0.4-1.3-0.4-2c-0.2-2.6,0.3-5.1-0.3-8.1c-2.9,1.9-3,5.1-4.5,7.4
		C148.5,18.5,147.7,18.7,147.4,19.3z"/>
	<path class="st4" d="M166.2,33.7c0,2.7-0.1,5.1,0,7.4c0.1,1.9-1,2.5-2.5,2.6c-2,0.1-1.3-1.5-1.3-2.4c-0.1-8.2-0.1-16.5,0-24.7
		c0-1-0.5-2.4,1.2-2.6c1.2-0.1,2.4-0.3,2.6,1.6c0.1,1.3,1.1,0.3,1.6,0.2c4.2-1.1,6.7,0.3,8.1,4.4c0.9,2.6,0.8,5.2,0.4,7.8
		C175.4,33.7,172,35.7,166.2,33.7z"/>
	<path class="st2" d="M182.6,33.9c0,2.5-0.1,4.8,0,7.2c0.2,2.1-1.2,2.6-2.7,2.7c-1.9,0.1-1.1-1.6-1.1-2.5c-0.1-8.2-0.1-16.4,0-24.6
		c0-1-0.6-2.5,1.2-2.6c1.1-0.1,2.7-0.7,2.7,1.4c0,0.9,0.6,1,1.2,0.6c0.9-0.5,1.9-0.7,2.9-0.7c2.8,0.1,4.5,1.7,5.2,4.1
		c1.4,4.5,1.6,9.1-1.4,13.2c-1.6,2.2-4,2.8-6.7,1.5C183.5,34,183.1,34,182.6,33.9z"/>
	<path class="st2" d="M115.8,30.3c1.2-1.7,1.6-3.5,1.6-5.6c-0.1-4.6,0-9.2-0.1-13.8c0-1.7,0.2-3,2.3-2.9c2.2,0,1.4,1.7,1.4,2.7
		c0.1,2.1,0,4.2,0,6.4c6.5-3.5,9.7-1.6,9.7,5.6c0,2-0.1,4-0.1,6c0,1.1-0.1,2.5,1.1,2.9c1.6,0.6,2.1-0.9,2.8-1.9
		c1.4,0,1.1,0.7,0.7,1.5c-0.7,2.5-2.3,3.9-5,3.4c-2.6-0.6-3.4-2.7-3.4-5.1c0-2.6,0.1-5.2,0-7.9c-0.1-1.5-0.3-3.1-2.3-3.3
		c-1.9-0.2-2.6,1.2-3.1,2.7c-1,3.2-0.1,6.4-0.5,9.6c-0.2,1.3,1.2,3.4-1.6,3.8c-2.8,0.4-1.8-2-2.4-3.2c-0.1-0.1-0.4-0.1-0.6-0.1
		C115.8,31.1,115.4,31,115.8,30.3z"/>
	<path class="st5" d="M236.3,27.6c-0.1,2.7-1.1,4.9-3.1,6.4c-2.4,1.7-5.3,0.7-6.4-2c-0.4-0.9-0.6-1.9-0.6-2.9
		c0.3-5.6-0.6-11.1-0.1-16.7c0.2-1.8,0.8-2.4,2.4-2.5c2-0.1,1.4,1.4,1.4,2.3c0,2-0.3,4,3.5,3.6c-3.7,0.6-3.5,2.9-3.4,5.1
		c0.1,2.4,0,4.7,0,7.1c0,1.5,0,3.4,1.7,3.7c1.7,0.4,2.5-1.3,3.2-2.7C235.1,28.4,235.3,27.8,236.3,27.6z"/>
	<path class="st4" d="M115.8,30.3c0.2,0.3,0.5,0.6,0.7,0.8c-2.1,2.9-4.7,4.3-8.3,3.3c-3.7-1.1-4.9-3.9-5.1-7.4
		c-0.2-3.4,0.1-6.7,2.3-9.6c1.7-2.1,4-2.4,6.4-1.9c2,0.4,2.8,1.9,3.1,3.8c0.2,1.2,0,2.5-1.4,2.6c-1.6,0.1-1-1.2-0.8-2.2
		c0.2-1.1-0.4-1.9-1.5-2.3c-1.1-0.4-1.9,0.2-2.6,1c-1.9,2.2-2.3,9.6-0.4,11.8C110.5,33.1,113.2,31.8,115.8,30.3z"/>
	<path class="st6" d="M89.5,31.1c-0.3-0.2-0.5-0.5-0.8-0.7c3-3.8,1.1-8.2,1.7-12.2c0.1-1.1-0.5-2.6,1.5-2.8c1.7-0.1,2.6,0.3,2.1,2.5
		c1.7-0.8,2.5-2.4,4.1-2.5c1,0,2,0,2.6,1c0.4,0.7,0.6,1.4,0.1,2.1c-0.7,1.1-1.5,0.8-2.6,0.5c-2.9-0.7-4.2,0.8-4.2,3.5
		c-0.1,2.9,0.1,5.7-0.1,8.6c-0.1,1.2,0.8,2.9-1.3,3.3c-2.2,0.4-2.4-1-2.6-2.6C90.3,31.5,89.8,31.3,89.5,31.1z"/>
	<path class="st7" d="M134.1,11.3c0.1-0.5,0.1-0.9,0.2-1.3c0.6-1.4-0.9-3.7,1.8-4.2c0.6-0.1,1.4,0.1,1.4,0.9
		c-0.2,2.2-0.5,4.4-1.9,6.3c-0.1,0.2-0.7,0.2-1,0.1C133.6,12.6,134.2,11.8,134.1,11.3z"/>
	<path class="st8" d="M85.8,20.7c-0.1,2-1.9,3.6-4.5,4.4c-1.3,0.4-1.5-0.6-1.2-1.6c0.6-2.5,0.5-5.6,3.8-6.2
		C85.4,16.9,85.8,18.4,85.8,20.7z"/>
	<path class="st9" d="M205,23.9c0,1.5,0.1,3,0,4.5c-0.2,1.7-1.2,3.1-3,3.4c-2,0.3-2.9-1.3-3.3-2.9c-0.7-3-0.5-5.9,0.8-8.8
		c0.7-1.6,1.8-2.8,3.7-2.6c2.3,0.3,2,2.2,2,3.8C205.1,22.2,205.1,23,205,23.9C205,23.9,205,23.9,205,23.9z"/>
	<path class="st10" d="M154.7,19c-2.3,0.1-4.4-1.2-6.6-1.5c0.8-3,2-5.8,4-8.2c0.5-0.6,1.1-1.5,2.1-1.1c0.9,0.4,0.5,1.3,0.5,2
		C154.8,13.1,154.7,16.1,154.7,19z"/>
	<path class="st11" d="M166.2,25c0-1.5,0-3,0-4.5c0-1.4,0.9-2.4,2.2-2.7c1.5-0.4,2.6,0.5,3.4,1.7c1.6,2.6,1.4,8.6-0.4,11.1
		c-0.9,1.2-1.9,1.9-3.5,1.4c-1.5-0.5-1.7-1.6-1.7-2.9C166.2,27.7,166.2,26.4,166.2,25C166.2,25,166.2,25,166.2,25z"/>
	<path class="st12" d="M182.6,25.1c0-1.5,0-3,0-4.5c0-1.5,0.7-2.4,2-2.8c1.4-0.4,2.4,0.4,3.2,1.5c1.9,2.5,1.7,9.4-0.4,11.7
		c-0.9,1-2,1.5-3.3,1c-1.3-0.5-1.4-1.6-1.4-2.7C182.6,27.9,182.6,26.5,182.6,25.1z"/>
	<path class="st13" d="M146.7,19c0.1-0.1,0.3-0.2,0.4-0.4c0.7-0.7,1.2-1.2,3-1.3c1,0,2.3,0.1,4.3,0.3c0.9,0.1,0.9,0.1,0.9,0.1l0,0
		v1.5l-3.6-1.7h-1.8h-0.7l6.8,0.9l-6.6-0.6c0,0-1.1,0.3-2.1,1"/>
	<path class="st13" d="M146.1,20.4c0,0,2.9-2.6,5.2-2.3s3.9,2.6,4,2.9"/>
	<path class="st1" d="M269.3,44"/>
	<path class="st1" d="M262.9,35.1"/>
</g>
</svg>
