<svg xmlns="http://www.w3.org/2000/svg" viewBox="0 0 100 125" x="0px" y="0px"><path d="m5.997 27.15l0 7.383 6.137 0 3.956 60.46 42.05 0 3.987-60.46 6.137 0 0-7.383-62.27 0m20.373 29.06l2.492 8.847c3.261-.155 6.309 1.828 7.196 4.953l4.299 15.14-4.579-5.078-.498 8.01-3.738-5.078-.249 8.38-5.05-9.158-1.776 6.386-4.02-14.174c-.889-3.131.636-6.43 3.52-8.01l-2.523-8.847 4.922-1.371m25.357 11.993c.219.164.372.448.405.872-.625.242-1.152.545-1.464.903-.312.358-.503.741-.623 1.308 1.781-.383 3.28-.021 4.517 1.371-2.181 2.352-3.272 4.77-3.395 7.445-.125 2.714.855 5.856 2.679 8.442-1.23 1.221-3.747.71-4.984-.031-2.189.494-3.586 1.073-5.233-.374 2.079-2.62 2.99-5.479 2.99-8.566 0-3.087-1.331-5.578-2.43-7.601 1.417-1.086 3.06-1.401 4.797-.779.14-.802.445-1.444.872-1.931.427-.487 1.167-.882 1.869-1.059"/><path d="m67.52 12.462l-1.391-7.134-25.02 4.879-.96-4.922-11.1 2.164.96 4.922-25.02 4.879 1.391 7.134z"/><path d="m93.74 11.595l1.26 6.746-17.02 3.179.979 5.241-11.992-6.674 8.774-10.553.979 5.241z" color="#000"/><text x="0" y="115" fill="#000000" font-size="5px" font-weight="bold" font-family="'Helvetica Neue', Helvetica, Arial-Unicode, Arial, Sans-serif">Created by Magicon</text><text x="0" y="120" fill="#000000" font-size="5px" font-weight="bold" font-family="'Helvetica Neue', Helvetica, Arial-Unicode, Arial, Sans-serif">from the Noun Project</text></svg>