<svg xmlns="http://www.w3.org/2000/svg" data-name="Layer 1" viewBox="0 0 100 125" x="0px" y="0px"><title>144all</title><path d="M65,56.92A14.49,14.49,0,0,0,77.83,35.67L66.33,13.84a1.5,1.5,0,0,0-2.65,0L52.17,35.67A14.49,14.49,0,0,0,65,56.92ZM54.83,37.07,65,17.76,75.17,37.07a11.5,11.5,0,1,1-20.35,0Z"/><path d="M19.07,28.36A8.76,8.76,0,0,0,33,18.08L26.59,5.88a1.5,1.5,0,0,0-2.65,0l-6.43,12.2a8.72,8.72,0,0,0,1.56,10.28Zm1.1-8.88,5.1-9.68,5.1,9.68a5.76,5.76,0,0,1-9.18,6.76h0A5.74,5.74,0,0,1,20.17,19.47Z"/><path d="M84.17,89.41a20.14,20.14,0,0,0,4,3.82,1.5,1.5,0,0,0,1.65-2.5,17.63,17.63,0,0,1-3.39-3.28c-2.25-2.59-4.8-5.52-9.83-5.52S69,84.85,66.77,87.44c-2.09,2.41-3.9,4.48-7.57,4.48s-5.48-2.08-7.57-4.48c-2.25-2.58-4.8-5.52-9.83-5.52S34.21,84.85,32,87.44c-2.09,2.41-3.9,4.48-7.57,4.48s-5.47-2.08-7.56-4.48A16.75,16.75,0,0,0,11.66,83a1.5,1.5,0,0,0-1.32,2.7,14.28,14.28,0,0,1,4.22,3.76c2.25,2.59,4.8,5.52,9.83,5.52S32,92,34.23,89.41c2.09-2.41,3.9-4.48,7.57-4.48s5.48,2.08,7.57,4.48c2.25,2.59,4.8,5.52,9.83,5.52S66.78,92,69,89.41c2.09-2.41,3.9-4.48,7.57-4.48S82.07,87,84.17,89.41Z"/><path d="M11.66,66a1.5,1.5,0,0,0-1.32,2.7,14.27,14.27,0,0,1,4.22,3.76c2.25,2.58,4.8,5.52,9.83,5.52S32,75,34.23,72.41c2.09-2.41,3.9-4.48,7.57-4.48s5.48,2.08,7.57,4.48c2.25,2.58,4.8,5.52,9.83,5.52S66.78,75,69,72.41c2.09-2.41,3.9-4.48,7.57-4.48s5.48,2.08,7.57,4.49a20.18,20.18,0,0,0,4,3.82,1.5,1.5,0,0,0,1.65-2.5,17.64,17.64,0,0,1-3.39-3.28c-2.25-2.58-4.8-5.52-9.83-5.52S69,67.85,66.76,70.44c-2.09,2.41-3.9,4.48-7.57,4.48s-5.48-2.08-7.57-4.48c-2.25-2.58-4.8-5.52-9.83-5.52S34.21,67.85,32,70.44c-2.09,2.41-3.9,4.48-7.57,4.48s-5.47-2.08-7.56-4.48A16.75,16.75,0,0,0,11.66,66Z"/><text x="0" y="115" fill="#000000" font-size="5px" font-weight="bold" font-family="'Helvetica Neue', Helvetica, Arial-Unicode, Arial, Sans-serif">Created by Manohara</text><text x="0" y="120" fill="#000000" font-size="5px" font-weight="bold" font-family="'Helvetica Neue', Helvetica, Arial-Unicode, Arial, Sans-serif">from the Noun Project</text></svg>