<svg xmlns:dc="http://purl.org/dc/elements/1.1/" xmlns:cc="http://creativecommons.org/ns#" xmlns:rdf="http://www.w3.org/1999/02/22-rdf-syntax-ns#" xmlns:svg="http://www.w3.org/2000/svg" xmlns="http://www.w3.org/2000/svg" xmlns:sodipodi="http://sodipodi.sourceforge.net/DTD/sodipodi-0.dtd" xmlns:inkscape="http://www.inkscape.org/namespaces/inkscape" version="1.1" x="0px" y="0px" viewBox="0 0 100 125"><g transform="translate(0,-952.36218)"><path style="text-indent:0;text-transform:none;direction:ltr;block-progression:tb;baseline-shift:baseline;color:#000000;enable-background:accumulate;" d="m 49.999949,965.36216 c -16.4122,0 -31.471799,5.51131 -43.2186985,14.40625 -0.8345,0.63814 -1.0131,1.97801 -0.375,2.8125 0.6381,0.83448 1.978,1.01314 2.8125,0.375 11.0700995,-8.38244 25.2645995,-13.59375 40.7811985,-13.59375 15.516601,0 29.711101,5.21131 40.781301,13.59375 0.8345,0.63814 2.1744,0.45948 2.8125,-0.375 0.638099,-0.83449 0.4595,-2.17436 -0.375,-2.8125 -11.747,-8.89494 -26.806601,-14.40625 -43.218801,-14.40625 z m 0,19 c -11.760599,0 -22.725799,3.55989 -31.249999,10.4375 -0.94,0.60625 -1.1746,2.0681 -0.4716,2.93807 0.703,0.86998 2.1815,0.94748 2.9716,0.15568 7.745,-6.24899 17.7964,-9.53125 28.749999,-9.53125 10.953601,0 21.005001,3.28226 28.750001,9.53125 0.7901,0.7918 2.2686,0.7143 2.9716,-0.15568 0.703,-0.86997 0.4684,-2.33182 -0.4716,-2.93807 -8.5241,-6.87761 -19.4894,-10.4375 -31.25,-10.4375 z m 0,17.99994 c -7.1816,0 -14.003299,2.249 -19.249999,6.4063 -0.8265,0.6544 -0.983,2.002 -0.328401,2.8284 0.6545,0.8264 2.0021,0.9826 2.8284,0.3278 4.479,-3.5489 10.415501,-5.5625 16.75,-5.5625 6.334501,0 12.271,2.0136 16.750001,5.5625 0.8263,0.6548 2.1739,0.4986 2.8284,-0.3278 0.6546,-0.8264 0.4981,-2.174 -0.3284,-2.8284 -5.2467,-4.1573 -12.0684,-6.4063 -19.25,-6.4063 z m 0,17.0001 c -5.4992,0 -10,4.5008 -10,10 0,5.4991 4.5008,10 10,10 5.499201,0 10,-4.5009 10,-10 0,-5.4992 -4.500799,-10 -10,-10 z m 0,4 c 3.337401,0 6,2.6626 6,6 0,3.3374 -2.662599,6 -6,6 -3.3374,0 -6,-2.6626 -6,-6 0,-3.3374 2.6626,-6 6,-6 z" fill="#000000" fill-opacity="1" stroke="none" marker="none" visibility="visible" display="inline" overflow="visible"/></g><text x="0" y="115" fill="#000000" font-size="5px" font-weight="bold" font-family="'Helvetica Neue', Helvetica, Arial-Unicode, Arial, Sans-serif">Created by Aya Sofya</text><text x="0" y="120" fill="#000000" font-size="5px" font-weight="bold" font-family="'Helvetica Neue', Helvetica, Arial-Unicode, Arial, Sans-serif">from the Noun Project</text></svg>