<svg xmlns="http://www.w3.org/2000/svg" xmlns:xlink="http://www.w3.org/1999/xlink" version="1.1" x="0px" y="0px" viewBox="0 0 100 125" style="enable-background:new 0 0 100 100;" xml:space="preserve"><g><path d="M70.8,37.9c-0.4-0.6-1-1-1.7-1h-12L64.6,11c0.2-0.6,0.1-1.3-0.3-1.8c-0.4-0.5-1-0.8-1.6-0.8H34.9c-1,0-1.9,0.8-2,1.8   L29,51.9c-0.1,0.6,0.1,1.1,0.5,1.5s0.9,0.7,1.5,0.7h10.5l-5.6,35.1c-0.2,0.9,0.4,1.9,1.3,2.2c0.2,0.1,0.5,0.1,0.7,0.1   c0.7,0,1.3-0.3,1.7-1l31.2-50.7C71.1,39.3,71.1,38.6,70.8,37.9z M41.4,80l4.4-27.5c0.1-0.6-0.1-1.2-0.5-1.6   c-0.4-0.4-0.9-0.7-1.5-0.7H33.2l3.6-37.7H60l-7.5,25.9c-0.2,0.6-0.1,1.3,0.3,1.8c0.4,0.5,1,0.8,1.6,0.8h11L41.4,80z"/></g><text x="0" y="115" fill="#000000" font-size="5px" font-weight="bold" font-family="'Helvetica Neue', Helvetica, Arial-Unicode, Arial, Sans-serif">Created by Fantastic</text><text x="0" y="120" fill="#000000" font-size="5px" font-weight="bold" font-family="'Helvetica Neue', Helvetica, Arial-Unicode, Arial, Sans-serif">from the Noun Project</text></svg>