<svg xmlns="http://www.w3.org/2000/svg" xmlns:xlink="http://www.w3.org/1999/xlink" xml:space="preserve" version="1.1" style="shape-rendering:geometricPrecision;text-rendering:geometricPrecision;image-rendering:optimizeQuality;" viewBox="0 0 333 416.25" x="0px" y="0px" fill-rule="evenodd" clip-rule="evenodd"><defs><style type="text/css">
   
    .fil0 {fill:black;fill-rule:nonzero}
   
  </style></defs><g><path class="fil0" d="M46 256l219 -126c6,-3 13,-1 17,4l9 17c4,6 2,13 -4,16l-219 127c-6,3 -13,1 -16,-5l-10 -16c-3,-6 -1,-13 4,-17zm212 -140c-1,5 -9,3 -7,-2 15,-54 -34,-18 -37,-52 -2,-20 17,-30 19,-21 1,4 -18,12 -9,26 3,3 7,6 14,5 33,-1 20,44 20,44zm-15 -9c1,5 -6,7 -8,2 -6,-9 -17,-8 -17,-12 0,-2 1,-4 3,-4 9,-2 19,6 22,14zm31 58c-6,2 -12,-4 -11,-10 -5,-1 -8,-5 -8,-10l-149 86 14 24 154 -90z"/></g><text x="0" y="348" fill="#000000" font-size="5px" font-weight="bold" font-family="'Helvetica Neue', Helvetica, Arial-Unicode, Arial, Sans-serif">Created by catyline_Icon</text><text x="0" y="353" fill="#000000" font-size="5px" font-weight="bold" font-family="'Helvetica Neue', Helvetica, Arial-Unicode, Arial, Sans-serif">from the Noun Project</text></svg>