<svg xmlns="http://www.w3.org/2000/svg" xmlns:xlink="http://www.w3.org/1999/xlink" version="1.1" x="0px" y="0px" viewBox="0 0 100 125" style="enable-background:new 0 0 100 100;" xml:space="preserve"><g><path d="M20.8,55.3c2.7-0.4,4.6-1.4,5.8-3.1c1.9-2.8,1.1-6.8,0-11c-2.1-8-7.1-12.4-12.5-11c-2.8,0.7-4.7,3-5.3,6.5   c-0.6,3.3,0.1,7.1,0.8,9.7c1.6,6.2,4.6,9.2,9.3,9.2C19.5,55.5,20.1,55.4,20.8,55.3z M13.4,45.3c-0.8-3.1-1.1-6-0.7-8   c0.4-2.5,1.6-3.1,2.4-3.3c3.6-0.9,6.5,3.6,7.7,8.1c0.8,3,1.5,6.4,0.6,7.8c-0.2,0.3-0.7,1-3,1.4C17.6,51.8,15,51.6,13.4,45.3z"/><path d="M36.8,41.7c1.1,0,2.5-0.4,3.9-1.6c4.6-3.8,6.3-8.6,5.1-14.5c-0.7-3.4-2-6.3-3.8-8.3c-2.1-2.3-4.8-3.3-7.5-2.7   c-5.4,1.1-8.4,7.7-6.9,15C28.5,34.2,31,40,35,41.4C35.5,41.6,36.2,41.7,36.8,41.7z M31.5,28.8c-1-4.9,0.7-9.6,3.8-10.2   c0.2,0,0.5-0.1,0.7-0.1c1.1,0,2.1,0.5,3,1.6c1.3,1.4,2.3,3.7,2.9,6.4c0.9,4.5-0.2,7.8-3.7,10.7c-1,0.8-1.6,0.6-1.8,0.5   C34.5,37,32.4,33.1,31.5,28.8z"/><path d="M18.1,74.7c0,5,3.4,10.8,13,10.8c4.2,0,6.9-0.3,9.2-0.6c1.8-0.2,3.3-0.4,5.2-0.4c1.9,0,4.3,0.2,7,0.4   c3.4,0.3,7.3,0.5,11.5,0.5c7.3,0,11-3.6,11-10.8c0-5.4-3-12.2-9.6-14.6c-2.5-0.9-2.9-2.4-3.4-4.8c-0.4-1.9-0.9-4.3-2.8-6.3   c-4-4.3-10.7-3.7-11.8-3.5c-1,0-6.6,0.4-10.4,4.5c-1.2,1.3-2.2,2.6-3.1,3.9c-1.9,2.6-3.5,4.9-7.2,6.2   C18.1,63.7,18.1,69.8,18.1,74.7z M37.1,56.3c0.9-1.2,1.7-2.4,2.7-3.5c3-3.2,7.6-3.3,7.7-3.3l0.3,0c0.1,0,5.5-0.8,8.4,2.3   c1.1,1.2,1.4,2.7,1.8,4.4c0.6,2.7,1.3,6.1,6,7.8c4.6,1.6,7,6.7,7,10.8c0,4.2-1.2,6.8-7,6.8c-4,0-7.8-0.3-11.2-0.5   c-2.8-0.2-5.2-0.4-7.3-0.4c-2.1,0-3.9,0.2-5.7,0.4c-2.2,0.2-4.8,0.5-8.8,0.5c-5.6,0-9-2.5-9-6.8c0-4.9,0-8.4,6-10.8   C32.9,62.2,35,59.2,37.1,56.3z"/><path d="M87.4,36.3c-2.2-1.8-5.2-2.3-8.5-1.4c-3,0.8-5.9,2.8-8.2,5.6c-3.6,4.3-5.4,10.6,0.1,15.2c1.5,1.3,3.5,1.9,5.7,1.9   c4.1,0,8.8-2.2,12-6c2.3-2.8,3.3-5.7,2.9-8.5C91.1,40.4,89.7,38.1,87.4,36.3z M85.4,48.9c-3.6,4.3-9.6,5.6-12,3.6   c-3.6-3-1.8-6.8,0.5-9.5c1.8-2.1,3.9-3.6,6.2-4.3c0.7-0.2,1.4-0.3,2-0.3c1.1,0,2.1,0.3,2.9,0.9v0c1,0.9,2.3,2.3,2.6,4.1   C87.7,45.1,87,47,85.4,48.9z"/><path d="M63,14.6c-5.4-0.7-10.4,4.4-11.3,11.6c-0.9,6.8,1,9.8,4.9,12.8c1.2,0.9,2.5,1.4,3.9,1.4c0.9,0,1.8-0.2,2.7-0.5   c3.8-1.5,7.1-6.3,7.8-11C71.8,21.5,68.4,15.3,63,14.6z M66.9,28.2c-0.5,3.3-2.8,6.9-5.3,7.9c-1.3,0.5-2.1,0.1-2.6-0.3   c-2.8-2.2-4.1-3.8-3.4-9.1c0.6-4.6,3.5-8.2,6.4-8.2c0.2,0,0.3,0,0.5,0C65.5,18.9,67.5,23.4,66.9,28.2z"/></g><text x="0" y="115" fill="#000000" font-size="5px" font-weight="bold" font-family="'Helvetica Neue', Helvetica, Arial-Unicode, Arial, Sans-serif">Created by Gagana</text><text x="0" y="120" fill="#000000" font-size="5px" font-weight="bold" font-family="'Helvetica Neue', Helvetica, Arial-Unicode, Arial, Sans-serif">from the Noun Project</text></svg>