<?xml version="1.0" encoding="utf-8"?>
<!-- Generator: Adobe Illustrator 21.1.0, SVG Export Plug-In . SVG Version: 6.00 Build 0)  -->
<svg version="1.1" id="Calque_1" xmlns="http://www.w3.org/2000/svg" xmlns:xlink="http://www.w3.org/1999/xlink" x="0px" y="0px"
	 viewBox="0 0 347.5 52.2" style="enable-background:new 0 0 347.5 52.2;" xml:space="preserve">
<style type="text/css">
	.st0{fill:#065A60;}
	.st1{fill:#ED1B36;}
</style>
<path class="st0" d="M31.8,35.4c0.2,0,0.4,0.1,0.5,0.2l1.1,1.2c-0.8,0.9-1.8,1.7-2.7,2.4c-1,0.7-2.1,1.3-3.2,1.8
	c-1.2,0.5-2.5,0.9-3.8,1.2c-1.5,0.3-3.1,0.4-4.6,0.4c-2.6,0-5.3-0.5-7.7-1.5C9,40.2,7,38.8,5.3,37c-1.7-1.9-3-4.1-3.9-6.5
	c-1-2.7-1.4-5.6-1.4-8.5c0-2.9,0.5-5.7,1.4-8.4C2.3,11.1,3.7,8.9,5.5,7c1.8-1.8,3.9-3.3,6.2-4.2c2.5-1,5.3-1.5,8-1.5
	c1.3,0,2.7,0.1,4,0.3c1.2,0.2,2.3,0.5,3.4,0.9c1.1,0.4,2.1,0.9,3,1.5c1,0.6,1.9,1.3,2.7,2.1L32,7.5c-0.2,0.2-0.4,0.4-0.7,0.3
	c-0.2,0-0.5-0.1-0.7-0.3l-1-0.7c-0.4-0.3-0.9-0.6-1.5-1c-0.7-0.4-1.3-0.7-2.1-1c-0.9-0.3-1.8-0.6-2.8-0.7c-1.2-0.2-2.4-0.3-3.6-0.3
	c-2.3,0-4.6,0.4-6.8,1.3c-2,0.8-3.8,2-5.3,3.6c-1.5,1.6-2.7,3.6-3.5,5.7c-0.9,2.4-1.3,5-1.2,7.5c0,2.6,0.4,5.2,1.2,7.6
	c0.7,2.1,1.9,4,3.4,5.7c1.4,1.5,3.2,2.8,5.1,3.6c2,0.8,4.2,1.3,6.4,1.2c1.3,0,2.6-0.1,3.9-0.3c1.1-0.2,2.1-0.5,3.1-0.9
	c0.9-0.4,1.8-0.8,2.6-1.4c0.9-0.6,1.7-1.2,2.4-1.9c0.1-0.1,0.2-0.1,0.3-0.2C31.6,35.3,31.7,35.3,31.8,35.4z"/>
<path class="st0" d="M41.2,42.1V0.7H44v18c1.2-1.6,2.8-2.9,4.5-3.9c1.7-1,3.7-1.5,5.7-1.4c1.4,0,2.8,0.2,4.1,0.7
	c1.2,0.5,2.2,1.2,3,2.1c0.8,1,1.4,2.1,1.8,3.4c0.4,1.4,0.6,2.9,0.6,4.5v18.1h-2.7V24c0.1-2.2-0.5-4.4-1.8-6.3
	c-1.2-1.5-3.1-2.3-5.6-2.3c-1.8,0-3.6,0.5-5.2,1.4c-1.7,1-3.1,2.4-4.3,4v21.3L41.2,42.1z"/>
<path class="st0" d="M82.8,13.3c1.5,0,3,0.3,4.4,0.8c1.3,0.5,2.5,1.4,3.5,2.4c1,1.1,1.8,2.4,2.3,3.9c0.6,1.7,0.9,3.5,0.8,5.3
	c0,0.3,0,0.6-0.2,0.9c-0.1,0.2-0.4,0.2-0.6,0.2H72.7v0.5c0,1.9,0.2,3.8,0.7,5.6c0.4,1.5,1.1,2.9,2.1,4.1c0.9,1.1,2,1.9,3.3,2.5
	c1.4,0.6,2.9,0.9,4.3,0.8c1.3,0,2.5-0.1,3.7-0.5c0.9-0.3,1.8-0.6,2.6-1.1c0.6-0.3,1.2-0.7,1.7-1.1c0.3-0.2,0.6-0.4,0.9-0.5
	c0.2,0,0.4,0.1,0.6,0.3l0.7,0.9c-0.5,0.6-1.1,1.2-1.8,1.6c-0.8,0.5-1.6,0.9-2.5,1.3c-1,0.4-2,0.6-3,0.8c-1,0.2-2.1,0.3-3.2,0.3
	c-1.8,0-3.6-0.3-5.3-1c-1.6-0.7-3-1.7-4.1-3c-1.2-1.4-2.1-3-2.6-4.8c-0.7-2.1-1-4.3-0.9-6.4c0-1.9,0.3-3.8,0.9-5.6
	c0.5-1.6,1.4-3.1,2.5-4.5c1.1-1.3,2.5-2.3,4-2.9C79.1,13.6,80.9,13.3,82.8,13.3z M82.8,15.3c-1.3,0-2.7,0.2-3.9,0.7
	c-1.1,0.4-2.2,1.1-3,2c-0.9,0.9-1.6,1.9-2.1,3.1c-0.5,1.3-0.9,2.6-1,4h18.7c0-1.4-0.2-2.8-0.6-4.1c-0.4-1.1-1-2.2-1.8-3.1
	c-0.8-0.8-1.7-1.5-2.7-1.9C85.3,15.5,84.1,15.3,82.8,15.3L82.8,15.3z"/>
<path class="st0" d="M101.3,42.1V13.8h1.4c0.3,0,0.5,0,0.7,0.2c0.2,0.2,0.2,0.4,0.2,0.7l0.2,6c0.8-2.1,2-3.9,3.6-5.4
	c1.6-1.3,3.6-2,5.6-2c0.8,0,1.6,0.1,2.4,0.3c0.7,0.2,1.4,0.4,2.1,0.8l-0.4,1.9c0,0.3-0.3,0.5-0.6,0.5c-0.2,0-0.3,0-0.5-0.1l-0.8-0.3
	c-0.4-0.1-0.8-0.2-1.2-0.3c-0.5-0.1-1-0.1-1.6-0.1c-2-0.1-3.9,0.7-5.3,2c-1.6,1.6-2.7,3.6-3.4,5.8v18.5L101.3,42.1z"/>
<path class="st0" d="M142.6,17.5c-0.1,0.1-0.2,0.2-0.3,0.2c-0.1,0.1-0.2,0.1-0.4,0.1c-0.3,0-0.6-0.2-0.8-0.4
	c-0.4-0.3-0.9-0.6-1.3-0.8c-0.7-0.3-1.4-0.6-2.1-0.8c-2.4-0.6-5-0.5-7.4,0.5c-1.3,0.6-2.3,1.4-3.2,2.5c-0.9,1.2-1.6,2.5-2,3.9
	c-0.9,3.4-0.9,7.1,0,10.5c0.4,1.4,1.1,2.7,2,3.9c0.8,1,1.9,1.9,3.1,2.4c1.3,0.6,2.6,0.8,4,0.8c1.2,0,2.3-0.1,3.4-0.5
	c0.8-0.3,1.6-0.6,2.3-1c0.5-0.3,1-0.7,1.4-1.1c0.2-0.3,0.5-0.4,0.8-0.5c0.2,0,0.4,0.1,0.6,0.3l0.7,0.9c-0.5,0.6-1,1.1-1.6,1.6
	c-0.7,0.5-1.5,0.9-2.3,1.3c-0.9,0.4-1.8,0.7-2.7,0.8c-1,0.2-2,0.3-3.1,0.3c-1.7,0-3.4-0.3-4.9-1c-1.5-0.6-2.8-1.6-3.9-2.9
	c-1.1-1.3-2-2.9-2.5-4.6c-1.2-3.9-1.2-8.1,0-12.1c0.5-1.7,1.4-3.3,2.5-4.6c1.1-1.3,2.5-2.3,4-3c1.7-0.7,3.6-1.1,5.5-1.1
	c1.7,0,3.4,0.3,4.9,0.9c1.4,0.6,2.7,1.4,3.8,2.4L142.6,17.5z"/>
<path class="st0" d="M149.9,42.1V0.7h2.7v18c1.2-1.6,2.8-2.9,4.5-3.9c1.7-1,3.7-1.5,5.7-1.4c1.4,0,2.8,0.2,4.1,0.7
	c1.2,0.5,2.2,1.2,3,2.1c0.8,1,1.4,2.1,1.8,3.4c0.4,1.4,0.6,2.9,0.6,4.5v18.1h-2.7V24c0.1-2.2-0.5-4.4-1.8-6.3
	c-1.2-1.5-3.1-2.3-5.6-2.3c-1.8,0-3.6,0.5-5.2,1.4c-1.7,1-3.1,2.4-4.3,4v21.3L149.9,42.1z"/>
<path class="st0" d="M181.1,0c0.4,0.7,0.7,1.4,0.9,2.1c0.2,0.7,0.3,1.4,0.3,2.1c0,1.5-0.4,3-1.1,4.3c-0.7,1.4-1.7,2.7-2.8,3.7
	l-0.8-0.5c-0.1-0.1-0.2-0.2-0.2-0.4c0-0.2,0.1-0.3,0.2-0.4c0.7-0.9,1.3-1.9,1.8-2.9c0.5-0.9,0.7-2,0.7-3c0-1.2-0.4-2.4-1-3.4
	c-0.1-0.1-0.1-0.3-0.1-0.5c0-0.3,0.2-0.5,0.4-0.6L181.1,0z"/>
<path class="st1" d="M217,42.1h-2.3c-0.2,0-0.5-0.1-0.7-0.2c-0.2-0.2-0.3-0.3-0.4-0.6L209,29.7h-19.8l-4.7,11.7
	c-0.1,0.2-0.2,0.4-0.4,0.5c-0.2,0.2-0.4,0.2-0.7,0.2h-2.2l16.5-40.4h2.9L217,42.1z M190,27.5h18.1l-8.2-20.4
	c-0.1-0.3-0.3-0.7-0.4-1.1c-0.1-0.4-0.3-0.8-0.4-1.3c-0.1,0.5-0.3,0.9-0.4,1.3c-0.1,0.4-0.3,0.8-0.4,1.1L190,27.5z"/>
<path class="st1" d="M222.1,52.2V13.8h1.5c0.2,0,0.4,0,0.6,0.2c0.2,0.1,0.3,0.3,0.3,0.6l0.3,4.4c1.2-1.6,2.7-3,4.4-4.1
	c1.7-1,3.7-1.5,5.7-1.5c3.1-0.2,6.2,1.2,8.2,3.6c1.9,2.4,2.9,6,2.9,10.9c0,2-0.3,3.9-0.8,5.8c-0.5,1.7-1.3,3.3-2.4,4.7
	c-1,1.3-2.4,2.4-3.9,3.1c-1.7,0.8-3.5,1.2-5.3,1.1c-1.7,0-3.4-0.3-5-1.1c-1.4-0.7-2.7-1.8-3.6-3.1v13.9H222.1z M234,15.5
	c-1.8,0-3.6,0.5-5.1,1.5c-1.6,1.1-3,2.5-4.1,4.1v14.9c0.9,1.4,2.1,2.6,3.6,3.5c2.8,1.3,6.1,1.3,8.9,0.1c1.2-0.6,2.3-1.5,3.1-2.6
	c0.9-1.2,1.5-2.6,1.9-4c0.4-1.7,0.7-3.4,0.6-5.1c0-4.2-0.8-7.3-2.3-9.3C239.1,16.4,236.5,15.3,234,15.5L234,15.5z"/>
<path class="st1" d="M252.6,52.2V13.8h1.5c0.2,0,0.4,0,0.6,0.2c0.2,0.1,0.3,0.3,0.3,0.6l0.3,4.4c1.2-1.6,2.7-3,4.4-4.1
	c1.7-1,3.7-1.5,5.7-1.5c3.1-0.2,6.2,1.2,8.2,3.6c1.9,2.4,2.9,6,2.9,10.9c0,2-0.3,3.9-0.8,5.8c-0.5,1.7-1.3,3.3-2.4,4.7
	c-1,1.3-2.4,2.4-3.9,3.1c-1.7,0.8-3.5,1.2-5.3,1.1c-1.7,0-3.4-0.3-5-1.1c-1.4-0.7-2.7-1.8-3.7-3.1v13.9H252.6z M264.5,15.5
	c-1.8,0-3.6,0.5-5.1,1.5c-1.6,1.1-3,2.5-4.1,4.1v14.9c0.9,1.4,2.1,2.6,3.6,3.5c2.8,1.3,6.1,1.3,8.9,0.1c1.2-0.6,2.3-1.5,3.1-2.6
	c0.9-1.2,1.5-2.6,1.9-4c0.4-1.7,0.7-3.4,0.6-5.1c0-4.2-0.8-7.3-2.3-9.3C269.6,16.4,267.1,15.3,264.5,15.5L264.5,15.5z"/>
<path class="st1" d="M301.2,42.1c-0.5,0-1-0.3-1.1-0.8l-0.4-3.6c-0.7,0.7-1.5,1.4-2.3,2c-0.7,0.6-1.6,1.1-2.4,1.5
	c-0.9,0.4-1.8,0.8-2.7,1c-1.1,0.2-2.1,0.3-3.2,0.3c-1,0-1.9-0.1-2.8-0.4c-0.9-0.3-1.7-0.7-2.4-1.3c-0.7-0.6-1.3-1.4-1.7-2.3
	c-0.5-1-0.7-2.2-0.6-3.3c0-1.2,0.3-2.4,1-3.3c0.8-1.1,1.9-2.1,3.2-2.7c1.8-0.9,3.7-1.5,5.6-1.8c2.7-0.5,5.5-0.8,8.3-0.8v-3
	c0.1-2.2-0.5-4.3-1.7-6.1c-1.2-1.5-3.1-2.2-5-2.1c-1.2,0-2.4,0.2-3.5,0.6c-0.9,0.3-1.7,0.7-2.4,1.3c-0.6,0.4-1.1,0.8-1.6,1.3
	c-0.3,0.3-0.7,0.5-1.1,0.6c-0.4,0-0.7-0.2-0.9-0.5l-0.5-0.8c1.3-1.4,2.9-2.5,4.7-3.4c1.7-0.8,3.6-1.2,5.6-1.1c1.4,0,2.7,0.2,4,0.7
	c1.1,0.5,2.1,1.2,2.8,2.1c0.8,1,1.4,2.1,1.7,3.3c0.4,1.4,0.6,2.8,0.6,4.3v18.5L301.2,42.1z M289.8,40.6c1,0,2-0.1,3-0.4
	c0.9-0.2,1.8-0.6,2.6-1c0.8-0.4,1.5-0.9,2.2-1.5c0.7-0.6,1.3-1.2,2-1.9v-7.4c-2.3,0-4.7,0.2-7,0.6c-1.7,0.3-3.3,0.7-4.8,1.4
	c-1.1,0.4-2,1.1-2.8,2c-0.6,0.8-0.9,1.7-0.9,2.7c0,0.8,0.1,1.7,0.5,2.5c0.5,1.3,1.6,2.3,3,2.7C288.3,40.5,289,40.6,289.8,40.6
	L289.8,40.6z"/>
<path class="st1" d="M310.9,42.1V13.8h1.4c0.3,0,0.5,0,0.7,0.2c0.2,0.2,0.2,0.4,0.2,0.7l0.2,6c0.8-2.1,2-3.9,3.6-5.4
	c1.6-1.3,3.6-2,5.6-2c0.8,0,1.6,0.1,2.4,0.3c0.7,0.2,1.4,0.4,2,0.8l-0.4,1.9c0,0.3-0.3,0.5-0.6,0.5c-0.2,0-0.3,0-0.5-0.1l-0.8-0.3
	c-0.4-0.1-0.8-0.2-1.2-0.3c-0.5-0.1-1-0.1-1.6-0.1c-2-0.1-3.9,0.7-5.3,2c-1.6,1.6-2.7,3.6-3.4,5.8v18.5L310.9,42.1z"/>
<path class="st1" d="M341.2,42.6c-1.6,0.1-3.3-0.5-4.5-1.6c-1.2-1.4-1.8-3.1-1.6-4.9V16.7h-4.1c-0.2,0-0.4-0.1-0.5-0.2
	c-0.1-0.1-0.2-0.3-0.2-0.5v-1l4.9-0.3l0.7-10.2c0-0.2,0.1-0.3,0.2-0.5c0.1-0.1,0.3-0.2,0.5-0.2h1.3v10.9h8.9v2h-8.9v19.3
	c0,0.7,0.1,1.4,0.3,2c0.2,0.5,0.5,1,0.8,1.4c0.3,0.4,0.8,0.6,1.2,0.8c0.5,0.2,1,0.3,1.5,0.3c0.6,0,1.2-0.1,1.8-0.3
	c0.4-0.2,0.9-0.4,1.3-0.7c0.3-0.2,0.6-0.4,0.9-0.7c0.1-0.2,0.3-0.3,0.5-0.3c0.2,0,0.4,0.1,0.5,0.3l0.7,1.2c-0.8,0.8-1.7,1.5-2.8,1.9
	C343.6,42.3,342.4,42.6,341.2,42.6z"/>
</svg>
